<?xml version="1.0" encoding="UTF-8" standalone="no"?>
<!-- Created with Inkscape (http://www.inkscape.org/) -->

<svg
   version="1.1"
   id="svg2"
   width="264.56668"
   height="264.56668"
   viewBox="0 0 264.56668 264.56668"
   sodipodi:docname="eprsimlogo.svg"
   inkscape:version="1.2.1 (9c6d41e410, 2022-07-14)"
   xmlns:inkscape="http://www.inkscape.org/namespaces/inkscape"
   xmlns:sodipodi="http://sodipodi.sourceforge.net/DTD/sodipodi-0.dtd"
   xmlns="http://www.w3.org/2000/svg"
   xmlns:svg="http://www.w3.org/2000/svg">
  <defs
     id="defs6">
    <clipPath
       clipPathUnits="userSpaceOnUse"
       id="clipPath20">
      <path
         d="M 0,198.425 H 198.425 V 0 H 0 Z"
         id="path18" />
    </clipPath>
    <clipPath
       clipPathUnits="userSpaceOnUse"
       id="clipPath42">
      <path
         d="M 0,198.425 H 198.425 V 0 H 0 Z"
         id="path40" />
    </clipPath>
    <clipPath
       clipPathUnits="userSpaceOnUse"
       id="clipPath62">
      <path
         d="M 0,198.425 H 198.425 V 0 H 0 Z"
         id="path60" />
    </clipPath>
  </defs>
  <sodipodi:namedview
     id="namedview4"
     pagecolor="#505050"
     bordercolor="#eeeeee"
     borderopacity="1"
     inkscape:showpageshadow="0"
     inkscape:pageopacity="0"
     inkscape:pagecheckerboard="0"
     inkscape:deskcolor="#505050"
     showgrid="false"
     inkscape:zoom="3.8818191"
     inkscape:cx="120.94845"
     inkscape:cy="132.15454"
     inkscape:window-width="2560"
     inkscape:window-height="1377"
     inkscape:window-x="-8"
     inkscape:window-y="-8"
     inkscape:window-maximized="1"
     inkscape:current-layer="g10">
    <inkscape:page
       x="0"
       y="0"
       id="page8"
       width="264.56668"
       height="264.56668" />
  </sodipodi:namedview>
  <g
     id="g10"
     inkscape:groupmode="layer"
     inkscape:label="Page 1"
     transform="matrix(1.3333333,0,0,-1.3333333,0,264.56667)">
    <path
       d="M 0.047,0 H 198.425 V 198.425 H 0.047 Z"
       style="fill:#ffffff;fill-opacity:1;fill-rule:nonzero;stroke:none"
       id="path12" />
    <g
       id="g14">
      <g
         id="g16"
         clip-path="url(#clipPath20)">
        <path
           d="M 198.471,0 H 0.046 v 198.425 h 198.425 z"
           style="fill:none;stroke:#5c92cd;stroke-width:3;stroke-linecap:butt;stroke-linejoin:miter;stroke-miterlimit:10;stroke-dasharray:none;stroke-opacity:1"
           id="path22" />
        <g
           id="g24"
           transform="translate(2.9785,92.3027)">
          <path
             d="M 0,0 H 0.45 0.599 0.75 0.899 1.05 1.5 1.65 1.8 1.95 2.098 2.399 2.701 m 0,0 h 0.15 0.148 0.3 0.15 H 3.75 3.9 4.05 4.351 4.499 4.651 4.949 5.25 5.399 5.55 5.85 6 6.3 6.449 6.599 6.901 7.202 7.35 7.5 7.65 7.95 8.25 8.4 8.551 8.701 8.849 9.3 9.45 9.6 9.75 9.9 10.35 l 0.151,0.79 h 0.148 0.15 0.451 0.151 0.15 0.149 l 0.151,0.396 h 0.449 0.151 0.15 0.149 0.301 l 0.148,0.397 h 0.301 0.15 0.15 0.301 0.149 L 14.4,1.186 h 0.3 0.3 0.149 0.151 0.3 L 15.751,0.79 h 0.299 0.15 0.151 0.298 0.303 0.149 0.15 0.15 L 17.7,1.186 h 0.3 0.151 l 0.15,0.397 h 0.149 l 0.151,0.393 0.448,0.396 0.153,0.396 0.148,0.79 0.15,0.396 h 0.15 l 0.45,0.793 h 0.151 L 20.4,5.142 20.551,5.536 H 21 l 0.151,0.792 h 0.15 0.149 0.152 L 22.05,5.536 h 0.15 l 0.15,-0.394 0.15,-0.395 0.15,-0.397 0.301,-0.396 0.3,-0.396 0.148,-0.79 H 23.55 L 23.85,2.372 24,1.976 h 0.15 0.301 0.15 0.3 0.15 l 0.299,0.396 0.15,0.396 0.3,0.79 0.152,0.396 0.298,0.793 0.151,0.789 0.149,1.186 0.301,0.397 0.15,0.791 0.15,1.582 0.3,0.791 0.299,1.187 0.151,0.79 0.149,0.793 0.151,0.789 0.15,0.397 0.45,0.395 0.15,0.397 h 0.15 l 0.151,-0.397 0.149,-0.395 0.449,-0.397 0.151,-1.186 0.149,-0.791 0.152,-1.187 0.449,-0.79 0.15,-0.791 0.15,-1.583 0.151,-0.792 0.15,-1.186 0.449,-0.394 0.149,-0.792 0.151,-0.396 0.15,-0.396 h 0.15 0.3 l 0.3,0.396 0.15,0.793 0.151,0.395 0.298,1.58 0.151,0.792 0.149,1.978 0.301,1.186 0.15,1.978 0.3,2.375 0.15,1.975 0.3,2.374 0.15,2.374 0.301,1.581 0.15,1.978 0.299,1.582 0.151,1.188 0.149,0.79 0.301,0.791 0.148,-0.791 0.151,-0.396 0.3,-0.79 0.3,-1.583 0.151,-1.581 0.148,-1.979 0.151,-2.373 0.149,-2.768 0.451,-2.372 0.15,-2.771 0.15,-1.977 0.15,-2.373 0.15,-1.582 0.45,-1.581 0.149,-0.793 0.152,-0.396 h 0.15 0.448 l 0.151,1.189 0.15,0.789 0.15,2.374 0.15,1.978 0.45,3.165 0.151,2.767 0.15,3.56 0.15,3.56 0.148,3.164 0.301,3.955 0.3,3.166 0.15,3.164 0.15,2.768 0.301,2.374 0.15,1.976 0.148,0.792 0.301,1.186 H 44.1 l 0.302,-1.186 0.148,-0.792 0.301,-1.976 0.15,-2.374 0.301,-3.164 0.15,-2.768 0.3,-3.561 0.15,-3.955 0.149,-3.165 0.3,-3.164 0.15,-3.955 0.15,-2.769 0.3,-2.373 0.3,-1.583 0.15,-1.581 0.15,-0.791 0.151,-0.792 0.15,1.186 0.45,0.792 0.149,1.978 0.15,2.768 0.152,2.771 0.148,3.558 0.451,4.351 0.148,4.351 0.152,4.352 0.15,4.746 0.449,4.746 0.15,4.35 0.15,3.956 0.15,3.955 0.15,3.164 0.451,2.373 0.149,1.979 0.151,1.185 h 0.15 l 0.149,-0.789 0.3,-1.582 0.3,-2.374 0.151,-3.165 0.149,-3.56 0.301,-4.35 0.149,-4.746 0.151,-5.142 0.3,-4.746 0.148,-4.748 0.302,-5.141 0.15,-4.351 0.3,-4.35 0.149,-3.165 0.3,-2.374 0.15,-1.978 0.301,-0.394 0.15,0.394 0.15,1.186 0.3,2.375 0.149,3.163 0.151,4.352 0.299,4.35 0.3,5.142 0.15,6.329 0.152,5.538 0.149,5.932 0.149,5.934 0.45,5.932 0.15,5.143 0.15,3.955 0.15,3.955 0.15,3.164 0.451,1.582 0.149,0.791 h 0.151 l 0.15,-1.581 0.45,-1.978 0.15,-3.164 0.151,-3.56 0.149,-4.746 0.149,-5.143 0.451,-5.538 0.149,-5.932 0.152,-5.934 0.148,-5.933 0.151,-5.537 0.3,-5.537 0.3,-4.745 0.149,-4.353 0.15,-3.559 0.3,-2.372 0.15,-1.189 0.3,-0.79 0.151,1.186 0.151,2.374 0.298,2.769 0.151,3.956 0.301,5.141 0.149,6.329 0.299,6.327 0.15,7.121 0.151,6.724 0.3,7.118 0.15,6.725 0.3,5.933 0.15,5.537 m 0,0 0.15,4.351 0.301,3.56 0.299,1.977 0.149,0.792 0.151,-0.396 0.15,-1.978 0.15,-2.373 0.45,-3.955 0.15,-4.747 0.15,-5.537 0.149,-5.933 0.152,-6.328 0.45,-6.724 0.15,-6.724 0.149,-6.329 0.149,-6.724 0.151,-5.537 0.45,-5.143 0.151,-4.35 0.149,-3.56 0.151,-2.374 0.449,-1.186 0.149,-0.79 0.151,1.186 0.149,1.582 0.151,2.768 0.3,3.956 0.301,4.747 0.149,5.537 0.15,5.933 0.299,6.724 0.151,6.328 0.301,6.724 0.149,5.934 0.152,5.536 0.298,5.142 0.15,4.353 0.15,3.164 0.3,2.372 0.301,0.792 0.15,0.394 0.151,-0.79 0.298,-1.979 0.15,-2.767 0.3,-3.165 0.15,-4.352 0.15,-4.35 0.301,-5.932 0.15,-5.142 0.3,-5.538 0.148,-5.932 0.151,-5.538 0.301,-5.933 0.299,-5.934 0.152,-5.142 0.149,-4.35 0.148,-4.352 0.152,-3.164 0.45,-3.164 0.15,-1.582 0.15,-0.79 h 0.15 l 0.15,1.186 0.449,2.768 0.15,3.56 0.15,4.352 0.151,5.536 0.449,5.934 0.151,6.328 0.149,7.119 0.152,6.33 0.148,6.724 0.301,5.536 0.299,5.538 0.15,4.351 0.151,3.164 0.149,2.374 0.301,0.791 h 0.3 l 0.15,-1.187 0.15,-2.372 0.299,-3.561 0.151,-3.955 0.149,-5.143 0.3,-5.536 0.15,-6.724 0.301,-6.33 0.15,-6.724 0.3,-6.329 0.15,-7.118 0.299,-5.934 0.15,-6.328 0.15,-4.746 0.3,-4.746 0.151,-4.352 0.3,-2.372 0.149,-1.582 0.149,-0.792 0.301,0.792 0.301,1.186 0.151,2.768 0.148,3.955 0.15,3.957 0.151,5.536 0.45,5.538 0.149,6.329 0.152,5.934 0.149,5.931 0.15,6.329 0.45,5.142 0.149,3.956 0.151,3.954 0.15,3.164 0.45,1.978 0.15,0.396 h 0.151 l 0.15,-1.582 0.149,-2.374 0.449,-2.768 0.152,-3.56 0.149,-4.747 0.151,-5.141 0.149,-5.538 0.301,-5.932 0.299,-6.329 0.15,-5.538 0.15,-5.933 0.301,-5.537 0.15,-5.142 0.15,-4.746 0.299,-3.561 0.149,-3.953 0.301,-2.374 0.15,-1.583 0.299,-1.186 0.15,0.394 0.302,0.792 0.149,1.583 0.15,2.768 0.299,3.559 0.151,3.957 0.301,4.35 0.148,4.746 0.152,5.142 0.297,5.142 0.303,4.352 0.15,4.35 0.15,3.561 0.149,3.559 0.15,2.768 0.451,1.187 0.148,1.187 h 0.151 l 0.15,-1.583 0.15,-1.582 0.449,-2.769 0.152,-3.164 0.149,-3.559 0.149,-3.955 0.451,-4.352 0.15,-4.746 0.15,-4.746 0.15,-4.747 0.15,-3.955 0.45,-4.35 0.149,-3.56 0.152,-3.957 0.15,-2.768 0.15,-2.374 0.299,-1.186 0.3,-1.581 0.15,-0.792 h 0.15 l 0.301,0.395 0.149,0.397 0.151,1.977 0.298,1.186 0.152,2.374 0.299,2.769 0.151,2.768 0.299,2.77 0.15,3.954 0.3,2.769 0.15,3.559 0.3,2.77 0.15,3.164 0.149,1.978 0.301,1.976 0.152,1.583 0.15,0.395 h 0.299 l 0.3,-1.186 0.149,-1.187 0.151,-1.977 0.149,-2.768 0.151,-2.771 0.449,-3.559 0.15,-3.954 0.151,-3.56 0.149,-4.35 0.152,-3.167 0.448,-3.558 0.151,-3.955 0.15,-2.769 0.15,-2.77 0.449,-1.976 0.15,-1.583 0.15,-1.186 0.15,-0.397 h 0.151 l 0.451,0.397 0.148,1.186 0.151,1.187 0.149,2.372 0.151,1.978 0.299,2.374 0.301,2.768 0.15,2.768 0.15,2.77 0.299,2.769 0.151,2.373 0.15,1.583 0.299,2.372 0.151,1.582 0.3,0.792 0.149,1.186 h 0.3 0.15 l 0.3,-1.186 0.151,-0.792 0.298,-1.978 0.153,-1.976 0.149,-1.978 0.3,-3.165 0.15,-2.77 0.151,-3.164 0.298,-2.767 0.3,-2.769 0.15,-2.77 0.151,-2.372 0.15,-2.373 0.15,-1.187 0.45,-1.582 0.15,-0.396 0.15,-0.396 h 0.15 l 0.149,0.396 0.451,0.792 0.15,1.186 0.15,1.187 0.15,1.581 0.452,1.188 0.148,1.976 0.15,1.188 0.15,1.976 0.151,1.978 0.449,1.978 0.151,1.186 0.148,1.978 0.151,1.186 0.15,1.188 0.3,0.79 0.299,0.397 0.151,0.395 h 0.151 l 0.299,-0.395 0.15,-0.793 0.149,-1.582 0.3,-1.186 0.151,-1.582 0.301,-1.186 0.149,-1.977 0.299,-1.187 0.151,-1.582 0.3,-0.792 0.149,-1.186 0.301,-0.792 0.15,-0.79 0.15,-0.792 0.3,-0.394 0.15,-0.396 0.148,-0.396 0.3,-0.396 h 0.303 l 0.15,-0.395 h 0.15 l 0.15,-0.791 h 0.149 0.45 l 0.15,0.791 0.15,0.395 h 0.151 l 0.15,0.396 0.449,0.792 0.15,1.186 0.151,0.79 0.149,0.792 0.451,1.583 0.15,1.186 m 0,0 0.149,1.581 0.149,1.978 0.152,1.186 0.448,1.978 0.15,1.978 0.15,1.583 0.152,1.582 0.148,1.186 0.301,1.582 0.3,0.791 h 0.149 0.152 l 0.149,-0.791 0.301,-0.79 0.149,-1.583 0.3,-1.977 0.15,-2.375 0.3,-2.768 0.15,-2.768 0.15,-2.77 0.3,-2.768 0.15,-2.768 0.3,-2.373 0.15,-2.373 0.3,-2.374 0.15,-1.186 0.301,-1.582 0.148,-0.396 h 0.152 l 0.299,0.396 0.15,1.582 0.3,1.186 0.151,2.374 0.149,2.768 0.151,3.56 0.449,3.56 0.15,4.35 0.15,3.56 0.151,3.56 0.15,3.955 0.45,3.164 0.149,2.77 0.15,2.372 0.151,1.978 0.149,1.186 0.451,0.791 h 0.149 l 0.151,-0.791 0.148,-1.186 0.451,-1.978 0.151,-1.977 0.149,-1.977 0.151,-3.164 0.15,-2.77 0.3,-2.768 0.3,-2.769 0.149,-2.374 0.15,-2.768 0.15,-2.373 0.3,-1.583 0.3,-1.582 0.151,-0.792 0.15,-1.186 h 0.299 0.15 l 0.15,1.186 0.301,0.792 0.15,1.582 0.298,1.583 0.152,1.978 0.299,1.977 0.151,2.372 0.299,1.582 0.152,2.375 0.149,1.977 0.299,1.978 0.151,1.583 0.298,1.976 0.151,1.582 0.151,1.188 0.148,1.582 0.452,1.186 0.15,1.582 0.149,0.791 0.151,1.186 0.149,0.397 0.451,0.396 h 0.149 0.152 l 0.148,-0.396 0.149,-0.397 0.453,-1.186 0.148,-0.791 0.15,-1.187 0.15,-1.186 0.45,-0.791 0.15,-1.582 0.152,-1.186 0.149,-1.978 0.148,-1.186 0.302,-1.583 0.301,-1.581 0.149,-0.792 0.15,-1.582 0.15,-1.187 0.3,-1.188 0.299,-0.394 0.151,-0.396 h 0.15 l 0.299,0.396 0.151,1.186 0.15,1.186 0.299,2.374 0.151,1.978 0.299,2.769 0.15,2.768 0.3,3.164 0.15,3.164 0.302,3.56 0.149,2.77 0.151,2.768 0.298,2.768 0.151,1.978 0.301,1.186 0.149,1.582 0.15,0.396 h 0.301 l 0.299,-1.186 0.15,-0.792 0.15,-1.976 0.149,-2.374 0.152,-1.978 0.449,-2.768 0.15,-3.56 0.15,-2.769 0.149,-3.164 0.15,-2.373 0.449,-2.768 0.154,-1.979 0.148,-1.186 0.149,-1.581 0.451,-0.397 0.151,0.397 0.149,1.186 0.151,0.79 0.15,1.977 0.298,2.375 0.301,2.768 0.151,2.768 0.15,2.77 0.15,2.768 0.3,2.374 0.299,2.768 0.149,1.582 0.151,1.978 0.301,1.582 0.148,0.79 0.151,0.792 h 0.299 0.153 l 0.297,-0.396 0.152,-0.396 0.299,-0.79 0.151,-1.582 0.3,-0.792 0.149,-1.978 0.149,-1.186 0.302,-1.582 0.148,-1.186 0.301,-1.582 0.151,-0.792 0.149,-1.186 0.301,-0.397 0.298,-0.393 0.151,-0.396 h 0.149 l 0.151,0.396 0.15,0.393 0.45,0.397 0.15,1.186 0.15,0.792 0.15,1.582 0.151,0.79 0.45,0.792 0.15,1.186 0.151,0.791 0.149,0.395 0.45,0.792 0.149,0.791 0.15,0.395 h 0.15 0.151 0.45 0.15 0.15 0.149 0.149 0.301 0.3 0.15 0.151 l 0.298,-0.395 h 0.153 0.148 0.302 l 0.149,-0.791 h 0.3 0.149 l 0.302,-0.396 h 0.148 0.3 0.152 0.148 0.301 0.15 0.3 0.148 0.152 0.3 l 0.299,0.396 h 0.151 l 0.149,0.791 h 0.149 l 0.153,0.395 h 0.45 l 0.149,0.396 h 0.149 0.151 l 0.149,0.396 h 0.45 0.152 0.148 0.149 L 179.106,0 h 0.15 0.15 0.151 0.148 0.451 0.15 0.15 0.15 0.15 0.3 0.3 0.151 0.149 0.301 0.148 0.151 0.3 0.151 0.297 0.152 0.3 0.151 0.3 0.148 0.301 0.149 0.151 0.301 0.148 0.15 0.299 0.302 0.149 0.15 0.152 0.149 0.45 0.151 0.149 0.149 0.151 0.149 0.45 0.152 0.148 0.45 0.151 0.15 0.151 0.149 0.449 0.15 0.152 0.148 0.151 0.3 0.3 0.15 0.151 0.149 0.3 0.15 0.301 0.148 0.301"
             style="fill:none;stroke:#ed1c24;stroke-width:2;stroke-linecap:butt;stroke-linejoin:round;stroke-miterlimit:10;stroke-dasharray:none;stroke-opacity:1"
             id="path26" />
        </g>
      </g>
    </g>
    <g
       id="g32"
       transform="translate(125.5063,165.5034)">
      <path
         d="M 0,0 H -12.4 V 7 H 0.75 v 6.25 H -20 v -33.7 H 1.45 v 6.25 H -12.4 v 8 H 0 Z"
         style="fill:none;stroke:#5c92cd;stroke-width:3;stroke-linecap:butt;stroke-linejoin:miter;stroke-miterlimit:10;stroke-dasharray:none;stroke-opacity:1"
         id="path34" />
    </g>
    <g
       id="g36">
      <g
         id="g38"
         clip-path="url(#clipPath42)">
        <g
           id="g44"
           transform="translate(132.1558,145.0532)">
          <path
             d="m 0,0 h 7.55 v 12.1 c 0.7,-0.15 1.6,-0.2 2.6,-0.2 4.5,0 8.35,1.15 10.95,3.55 2.05,1.85 3.1,4.7 3.1,8 0,3.3 -1.4,6.1 -3.6,7.8 -2.25,1.8 -5.6,2.7 -10.3,2.7 -4.65,0 -7.95,-0.3 -10.3,-0.7 z m 7.55,27.9 c 0.55,0.15 1.6,0.25 3.1,0.25 3.85,0 6,-1.85 6,-4.95 0,-3.4 -2.5,-5.45 -6.55,-5.45 -1.15,0 -1.9,0.05 -2.55,0.2 z"
             style="fill:none;stroke:#5c92cd;stroke-width:3;stroke-linecap:butt;stroke-linejoin:miter;stroke-miterlimit:10;stroke-dasharray:none;stroke-opacity:1"
             id="path46" />
        </g>
        <g
           id="g48"
           transform="translate(161.2056,145.0532)">
          <path
             d="M 0,0 H 7.55 V 13.25 H 9.8 C 12.95,13.2 14.4,12.1 15.35,7.85 16.3,3.7 17.15,1 17.65,0 h 7.8 c -0.65,1.3 -1.65,5.7 -2.7,9.55 -0.85,3.1 -2.15,5.3 -4.5,6.25 v 0.15 c 2.9,1.05 5.95,4 5.95,8.25 0,3.1 -1.1,5.5 -3.15,7.1 -2.4,1.9 -5.9,2.65 -10.9,2.65 -4.1,0 -7.7,-0.3 -10.15,-0.7 z m 7.55,28 c 0.55,0.15 1.6,0.25 3.45,0.25 3.5,0 5.6,-1.6 5.6,-4.65 0,-2.95 -2.25,-4.85 -6.05,-4.85 h -3 z"
             style="fill:none;stroke:#5c92cd;stroke-width:3;stroke-linecap:butt;stroke-linejoin:miter;stroke-miterlimit:10;stroke-dasharray:none;stroke-opacity:1"
             id="path50" />
        </g>
      </g>
    </g>
    <g
       id="g56">
      <g
         id="g58"
         clip-path="url(#clipPath62)">
        <g
           id="g64"
           transform="translate(7.6143,9.126)">
          <path
             d="m 0,0 c 1.147,-0.713 3.551,-1.457 6.922,-1.488 5.38,0 9.827,2.387 9.827,7.037 0,2.511 -1.865,4.216 -4.806,5.518 -2.044,0.992 -3.515,1.767 -3.515,2.976 0,1.147 1.256,2.17 3.695,2.17 1.972,0.031 3.693,-0.527 4.482,-0.899 l 1.614,3.72 c -1.04,0.465 -2.761,1.023 -5.702,1.023 -5.272,0 -9.504,-2.542 -9.504,-6.789 0,-2.697 2.439,-4.34 4.985,-5.518 2.224,-1.023 3.264,-1.767 3.264,-2.976 0,-1.612 -1.829,-2.418 -3.838,-2.418 -2.224,0 -4.268,0.589 -5.702,1.333 z"
             style="fill:none;stroke:#5c92cd;stroke-width:2;stroke-linecap:butt;stroke-linejoin:miter;stroke-miterlimit:10;stroke-dasharray:none;stroke-opacity:1"
             id="path66" />
        </g>
        <g
           id="g68"
           transform="translate(31.0698,28.873)">
          <path
             d="M 0,0 -4.591,-20.894 H 0.574 L 5.165,0 Z"
             style="fill:none;stroke:#5c92cd;stroke-width:2;stroke-linecap:butt;stroke-linejoin:miter;stroke-miterlimit:10;stroke-dasharray:none;stroke-opacity:1"
             id="path70" />
        </g>
        <g
           id="g72"
           transform="translate(61.6265,7.979)">
          <path
             d="M 0,0 3.264,20.894 H -3.73 l -4.483,-7.936 c -1.04,-1.891 -2.331,-4.34 -3.264,-6.665 h -0.143 c -0.036,2.325 -0.287,4.712 -0.431,6.665 l -0.753,7.936 h -6.922 L -25.787,0 h 4.734 l 2.403,8.618 c 0.61,2.263 1.327,5.394 2.008,8.153 h 0.072 c 0.144,-2.79 0.323,-5.673 0.538,-7.967 l 0.861,-8.463 h 4.017 l 4.949,8.556 c 1.328,2.294 2.834,5.177 4.161,7.874 h 0.107 C -2.618,13.764 -3.156,10.881 -3.551,8.618 L -5.021,0 Z"
             style="fill:none;stroke:#5c92cd;stroke-width:2;stroke-linecap:butt;stroke-linejoin:miter;stroke-miterlimit:10;stroke-dasharray:none;stroke-opacity:1"
             id="path74" />
        </g>
        <g
           id="g76"
           transform="translate(70.3413,28.873)">
          <path
             d="m 0,0 -2.546,-11.656 c -0.216,-0.992 -0.359,-2.015 -0.359,-2.914 0,-4.433 3.049,-6.696 8.034,-6.665 6.599,0 9.791,3.038 11.189,9.362 L 18.937,0 h -5.165 l -2.654,-12.059 c -0.861,-3.875 -2.618,-5.425 -5.344,-5.425 -2.295,0 -3.515,1.302 -3.515,3.007 0,0.899 0.108,1.736 0.287,2.449 L 5.165,0 Z"
             style="fill:none;stroke:#5c92cd;stroke-width:2;stroke-linecap:butt;stroke-linejoin:miter;stroke-miterlimit:10;stroke-dasharray:none;stroke-opacity:1"
             id="path78" />
        </g>
        <g
           id="g80"
           transform="translate(89.3501,7.979)">
          <path
             d="m 0,0 h 14.454 l 0.86,3.906 H 6.025 l 3.73,16.988 H 4.59 Z"
             style="fill:none;stroke:#5c92cd;stroke-width:2;stroke-linecap:butt;stroke-linejoin:miter;stroke-miterlimit:10;stroke-dasharray:none;stroke-opacity:1"
             id="path82" />
        </g>
        <g
           id="g84"
           transform="translate(120.9824,13.4038)">
          <path
             d="M 0,0 0.466,-5.425 H 5.918 L 3.084,15.469 H -3.551 L -15.314,-5.425 h 5.523 L -6.958,0 Z m -5.451,3.41 2.403,4.495 c 0.645,1.209 1.326,2.821 1.936,4.092 h 0.072 c 0.107,-1.271 0.251,-2.945 0.323,-4.092 L -0.215,3.41 Z"
             style="fill:none;stroke:#5c92cd;stroke-width:2;stroke-linecap:butt;stroke-linejoin:miter;stroke-miterlimit:10;stroke-dasharray:none;stroke-opacity:1"
             id="path86" />
        </g>
        <g
           id="g88"
           transform="translate(131.6348,7.979)">
          <path
             d="m 0,0 h 5.165 l 3.73,16.988 h 6.455 l 0.861,3.906 H -1.757 L -2.654,16.988 H 3.73 Z"
             style="fill:none;stroke:#5c92cd;stroke-width:2;stroke-linecap:butt;stroke-linejoin:miter;stroke-miterlimit:10;stroke-dasharray:none;stroke-opacity:1"
             id="path90" />
        </g>
        <g
           id="g92"
           transform="translate(159.8965,29.2139)">
          <path
             d="m 0,0 c -3.479,0 -6.563,-1.116 -8.823,-2.976 -2.833,-2.356 -4.447,-6.107 -4.447,-9.889 0,-4.867 3.515,-8.711 9.791,-8.711 3.623,0 6.671,1.116 8.93,3.007 2.762,2.325 4.304,6.045 4.304,9.858 C 9.755,-3.72 6.384,0 0,0 Z m -0.61,-3.72 c 3.802,0 4.878,-2.511 4.878,-5.115 0,-2.418 -1.04,-5.859 -2.941,-7.502 -1.112,-0.961 -2.511,-1.519 -4.053,-1.519 -3.515,0 -5.057,2.201 -5.057,5.146 0,2.511 1.076,5.766 3.013,7.409 1.112,0.992 2.546,1.581 4.16,1.581 z"
             style="fill:none;stroke:#5c92cd;stroke-width:2;stroke-linecap:butt;stroke-linejoin:miter;stroke-miterlimit:10;stroke-dasharray:none;stroke-opacity:1"
             id="path94" />
        </g>
        <g
           id="g96"
           transform="translate(170.9063,7.979)">
          <path
             d="m 0,0 h 5.093 l 1.793,8.246 h 1.578 c 2.044,0 3.049,-0.775 3.3,-3.317 C 11.979,2.356 12.23,0.558 12.445,0 h 5.308 c -0.43,0.868 -0.609,3.596 -0.932,5.952 -0.216,1.891 -0.861,3.255 -2.296,3.813 v 0.093 c 3.121,0.868 5.488,2.821 5.488,5.921 0,1.922 -1.112,3.255 -2.69,4.061 -1.686,0.93 -4.053,1.209 -6.348,1.209 -2.403,0 -4.842,-0.186 -6.456,-0.527 z m 8.93,17.391 c 0.431,0.093 1.041,0.155 2.009,0.155 2.08,0 3.694,-0.744 3.694,-2.449 0,-2.046 -2.045,-3.503 -4.842,-3.503 H 7.675 Z"
             style="fill:none;stroke:#5c92cd;stroke-width:2;stroke-linecap:butt;stroke-linejoin:miter;stroke-miterlimit:10;stroke-dasharray:none;stroke-opacity:1"
             id="path98" />
        </g>
      </g>
    </g>
  </g>
</svg>
